<?xml version="1.0" encoding="UTF-8" standalone="no"?>
<svg width="20px" height="13px" viewBox="0 0 20 13" version="1.1" xmlns="http://www.w3.org/2000/svg" xmlns:xlink="http://www.w3.org/1999/xlink" xmlns:sketch="http://www.bohemiancoding.com/sketch/ns">
    <!-- Generator: Sketch 3.3.2 (12043) - http://www.bohemiancoding.com/sketch -->
    <title>email</title>
    <desc>Created with Sketch.</desc>
    <defs></defs>
    <g id="Page-1" stroke="none" stroke-width="1" fill="none" fill-rule="evenodd" sketch:type="MSPage">
        <g id="Email-Copy-8" sketch:type="MSLayerGroup" fill="#000000">
            <g id="Group" sketch:type="MSShapeGroup">
                <path d="M19.6666667,13 L0.333333333,13 C0.149333333,13 0,12.85 0,12.6666667 L0,0.666666667 C0,0.482666667 0.149333333,0.333333333 0.333333333,0.333333333 L19.6666667,0.333333333 C19.85,0.333333333 20,0.482666667 20,0.666666667 L20,12.6666667 C20,12.85 19.85,13 19.6666667,13 L19.6666667,13 Z M0.666666667,12.3333333 L19.3333333,12.3333333 L19.3333333,1 L0.666666667,1 L0.666666667,12.3333333 L0.666666667,12.3333333 Z" id="Shape"></path>
                <path d="M10.1586667,8.73666667 C10.0866667,8.73666667 10.0133333,8.71333333 9.95133333,8.66466667 L2.452,2.74066667 C2.30733333,2.62666667 2.28333333,2.41666667 2.39666667,2.27266667 C2.51133333,2.128 2.72066667,2.10333333 2.86533333,2.21733333 L10.3653333,8.142 C10.5106667,8.256 10.534,8.46466667 10.4206667,8.61 C10.3546667,8.69333333 10.2573333,8.73666667 10.1586667,8.73666667 L10.1586667,8.73666667 Z" id="Shape"></path>
                <path d="M10.1593333,8.73666667 C10.0606667,8.73666667 9.96333333,8.69333333 9.89733333,8.61 C9.78333333,8.466 9.808,8.25666667 9.95266667,8.142 L17.4526667,2.21733333 C17.5973333,2.10333333 17.806,2.128 17.9206667,2.27266667 C18.0346667,2.41666667 18.01,2.62666667 17.8653333,2.74066667 L10.3653333,8.66466667 C10.3046667,8.71333333 10.232,8.73666667 10.1593333,8.73666667 L10.1593333,8.73666667 Z" id="Shape"></path>
                <path d="M2.65933333,10.9806667 C2.544,10.9806667 2.43133333,10.9206667 2.37,10.814 C2.278,10.654 2.33333333,10.4506667 2.49333333,10.358 L8.32666667,7.008 C8.48666667,6.916 8.69,6.97133333 8.782,7.132 C8.874,7.29066667 8.81866667,7.49533333 8.65866667,7.588 L2.82533333,10.9373333 C2.77266667,10.966 2.716,10.9806667 2.65933333,10.9806667 L2.65933333,10.9806667 Z" id="Shape"></path>
                <path d="M17.6586667,10.9806667 C17.6026667,10.9806667 17.5453333,10.9666667 17.4926667,10.9373333 L11.6593333,7.588 C11.5,7.49533333 11.4446667,7.29266667 11.5353333,7.132 C11.6273333,6.972 11.83,6.91666667 11.9906667,7.008 L17.824,10.358 C17.984,10.4506667 18.0386667,10.6533333 17.948,10.814 C17.8866667,10.9206667 17.7746667,10.9806667 17.6586667,10.9806667 L17.6586667,10.9806667 Z" id="Shape"></path>
            </g>
        </g>
    </g>
</svg>
