<?xml version="1.0" encoding="UTF-8" standalone="no"?>
<svg width="12px" height="20px" viewBox="0 0 12 20" version="1.1" xmlns="http://www.w3.org/2000/svg" xmlns:xlink="http://www.w3.org/1999/xlink" xmlns:sketch="http://www.bohemiancoding.com/sketch/ns">
    <!-- Generator: Sketch 3.3.2 (12043) - http://www.bohemiancoding.com/sketch -->
    <title>phone</title>
    <desc>Created with Sketch.</desc>
    <defs></defs>
    <g id="Page-1" stroke="none" stroke-width="1" fill="none" fill-rule="evenodd" sketch:type="MSPage">
        <g id="Smartphone-3-Copy-8" sketch:type="MSLayerGroup" fill="#000000">
            <g id="Group" sketch:type="MSShapeGroup">
                <path d="M10.0833333,20 L1.91666667,20 C1.04333333,20 0.333333333,19.2906667 0.333333333,18.4166667 L0.333333333,1.58333333 C0.333333333,0.71 1.04333333,0 1.91666667,0 L10.0833333,0 C10.9573333,0 11.6666667,0.71 11.6666667,1.58333333 L11.6666667,18.4166667 C11.6666667,19.2906667 10.9573333,20 10.0833333,20 L10.0833333,20 Z M1.91666667,0.666666667 C1.41133333,0.666666667 1,1.078 1,1.58333333 L1,18.4166667 C1,18.922 1.41133333,19.3333333 1.91666667,19.3333333 L10.0833333,19.3333333 C10.5886667,19.3333333 11,18.922 11,18.4166667 L11,1.58333333 C11,1.078 10.5886667,0.666666667 10.0833333,0.666666667 L1.91666667,0.666666667 L1.91666667,0.666666667 Z" id="Shape"></path>
                <path d="M11,3.33333333 L1,3.33333333 C0.816,3.33333333 0.666666667,3.184 0.666666667,3 C0.666666667,2.816 0.816,2.66666667 1,2.66666667 L11,2.66666667 C11.1833333,2.66666667 11.3333333,2.816 11.3333333,3 C11.3333333,3.184 11.1833333,3.33333333 11,3.33333333 L11,3.33333333 Z" id="Shape"></path>
                <path d="M11,16.6666667 L1,16.6666667 C0.816,16.6666667 0.666666667,16.5166667 0.666666667,16.3333333 C0.666666667,16.15 0.816,16 1,16 L11,16 C11.1833333,16 11.3333333,16.15 11.3333333,16.3333333 C11.3333333,16.5166667 11.1833333,16.6666667 11,16.6666667 L11,16.6666667 Z" id="Shape"></path>
                <path d="M7,18 L5,18 C4.816,18 4.66666667,17.85 4.66666667,17.6666667 C4.66666667,17.4833333 4.816,17.3333333 5,17.3333333 L7,17.3333333 C7.18333333,17.3333333 7.33333333,17.4833333 7.33333333,17.6666667 C7.33333333,17.85 7.18333333,18 7,18 L7,18 Z" id="Shape"></path>
            </g>
        </g>
    </g>
</svg>
